# Fixed UVs for Ursina (Front Normalized)
mtllib 50_kmh_SCHILD_v1.mtl
v 0.7 -5.75 14.0
v 0.7 -5.685777 14.856993
v 0.7 -5.494544 15.694842
v 0.7 -5.180571 16.494832
v 0.7 -4.750873 17.239091
v 0.7 -4.215048 17.910993
v 0.7 -3.585066 18.495531
v 0.7 -2.875 18.979646
v 0.7 -2.100711 19.352524
v 0.7 -1.279495 19.605836
v 0.7 -0.429698 19.733922
v 0.7 0.429698 19.733922
v 0.7 1.279495 19.605836
v 0.7 2.100711 19.352524
v 0.7 2.875 18.979646
v 0.7 3.585066 18.495531
v 0.7 4.215048 17.910993
v 0.7 4.750873 17.239091
v 0.7 5.180571 16.494832
v 0.7 5.494544 15.694842
v 0.7 5.685777 14.856993
v 0.7 5.75 14.0
v 0.7 5.685777 13.143007
v 0.7 5.494544 12.305158
v 0.7 5.180571 11.505169
v 0.7 4.750873 10.76091
v 0.7 4.215048 10.089007
v 0.7 3.585066 9.504469
v 0.7 2.875 9.020354
v 0.7 2.100711 8.647476
v 0.7 1.279495 8.394165
v 0.7 0.429698 8.266078
v 0.7 -0.429698 8.266078
v 0.7 -1.279495 8.394165
v 0.7 -2.100711 8.647476
v 0.7 -2.875 9.020354
v 0.7 -3.585066 9.504469
v 0.7 -4.215048 10.089007
v 0.7 -4.750873 10.76091
v 0.7 -5.180571 11.505169
v 0.7 -5.494544 12.305158
v 0.7 -5.685777 13.143007
v 0.3 -5.75 14.0
v 0.3 -5.685777 13.143007
v 0.3 -5.494544 12.305158
v 0.3 -5.180571 11.505169
v 0.3 -4.750873 10.76091
v 0.3 -4.215048 10.089007
v 0.3 -3.585066 9.504469
v 0.3 -2.875 9.020354
v 0.3 -2.100711 8.647476
v 0.3 -1.279495 8.394165
v 0.3 -0.429698 8.266078
v 0.3 0.429698 8.266078
v 0.3 1.279495 8.394165
v 0.3 2.100711 8.647476
v 0.3 2.875 9.020354
v 0.3 3.585066 9.504469
v 0.3 4.215048 10.089007
v 0.3 4.750873 10.76091
v 0.3 5.180571 11.505169
v 0.3 5.494544 12.305158
v 0.3 5.685777 13.143007
v 0.3 5.75 14.0
v 0.3 5.685777 14.856993
v 0.3 5.494544 15.694842
v 0.3 5.180571 16.494832
v 0.3 4.750873 17.239091
v 0.3 4.215048 17.910993
v 0.3 3.585066 18.495531
v 0.3 2.875 18.979646
v 0.3 2.100711 19.352524
v 0.3 1.279495 19.605836
v 0.3 0.429698 19.733922
v 0.3 -0.429698 19.733922
v 0.3 -1.279495 19.605836
v 0.3 -2.100711 19.352524
v 0.3 -2.875 18.979646
v 0.3 -3.585066 18.495531
v 0.3 -4.215048 17.910993
v 0.3 -4.750873 17.239091
v 0.3 -5.180571 16.494832
v 0.3 -5.494544 15.694842
v 0.3 -5.685777 14.856993
vn -0.000000 -0.988831 0.149042
vn -0.000000 -0.988831 0.149042
vn -0.000000 -1.000000 0.000000
vn -0.000000 -1.000000 0.000000
vn 0.000000 -0.988831 -0.149042
vn 0.000000 -0.988831 -0.149042
vn 0.000000 -0.955573 -0.294755
vn 0.000000 -0.955573 -0.294755
vn 0.000000 -0.900969 -0.433884
vn 0.000000 -0.900969 -0.433884
vn 0.000000 -0.826239 -0.563320
vn 0.000000 -0.826239 -0.563320
vn 0.000000 -0.733052 -0.680173
vn 0.000000 -0.733052 -0.680173
vn 0.000000 -0.623490 -0.781831
vn 0.000000 -0.623490 -0.781831
vn 0.000000 -0.500000 -0.866025
vn 0.000000 -0.500000 -0.866025
vn 0.000000 -0.365341 -0.930874
vn 0.000000 -0.365341 -0.930874
vn 0.000000 -0.222521 -0.974928
vn 0.000000 -0.222521 -0.974928
vn 0.000000 -0.074730 -0.997204
vn 0.000000 -0.074730 -0.997204
vn -0.000000 0.074730 -0.997204
vn -0.000000 0.074730 -0.997204
vn -0.000000 0.222521 -0.974928
vn -0.000000 0.222521 -0.974928
vn -0.000000 0.365341 -0.930874
vn -0.000000 0.365341 -0.930874
vn -0.000000 0.500000 -0.866025
vn -0.000000 0.500000 -0.866025
vn -0.000000 0.623490 -0.781831
vn -0.000000 0.623490 -0.781831
vn -0.000000 0.733052 -0.680173
vn -0.000000 0.733052 -0.680173
vn -0.000000 0.826239 -0.563320
vn -0.000000 0.826239 -0.563320
vn -0.000000 0.900969 -0.433884
vn -0.000000 0.900969 -0.433884
vn -0.000000 0.955573 -0.294755
vn -0.000000 0.955573 -0.294755
vn -0.000000 0.988831 -0.149042
vn -0.000000 0.988831 -0.149042
vn -0.000000 1.000000 -0.000000
vn -0.000000 1.000000 -0.000000
vn -0.000000 0.988831 0.149042
vn -0.000000 0.988831 0.149042
vn -0.000000 0.955573 0.294755
vn -0.000000 0.955573 0.294755
vn -0.000000 0.900969 0.433884
vn -0.000000 0.900969 0.433884
vn -0.000000 0.826239 0.563320
vn -0.000000 0.826239 0.563320
vn -0.000000 0.733052 0.680173
vn -0.000000 0.733052 0.680173
vn -0.000000 0.623490 0.781831
vn -0.000000 0.623490 0.781831
vn -0.000000 0.500000 0.866025
vn -0.000000 0.500000 0.866025
vn -0.000000 0.365341 0.930874
vn -0.000000 0.365341 0.930874
vn -0.000000 0.222521 0.974928
vn -0.000000 0.222521 0.974928
vn -0.000000 0.074730 0.997204
vn -0.000000 0.074730 0.997204
vn -0.000000 -0.074730 0.997204
vn -0.000000 -0.074730 0.997204
vn -0.000000 -0.222521 0.974928
vn -0.000000 -0.222521 0.974928
vn -0.000000 -0.365341 0.930874
vn -0.000000 -0.365341 0.930874
vn -0.000000 -0.500000 0.866025
vn -0.000000 -0.500000 0.866025
vn -0.000000 -0.623490 0.781831
vn -0.000000 -0.623490 0.781831
vn -0.000000 -0.733052 0.680173
vn -0.000000 -0.733052 0.680173
vn -0.000000 -0.826239 0.563320
vn -0.000000 -0.826239 0.563320
vn -0.000000 -0.900969 0.433884
vn -0.000000 -0.900969 0.433884
vn -0.000000 -0.955573 0.294755
vn -0.000000 -0.955573 0.294755
vn 1.000000 0.000000 0.000000
vn 1.000000 0.000000 0.000000
vn 1.000000 0.000000 0.000000
vn 1.000000 0.000000 0.000000
vn 1.000000 0.000000 0.000000
vn 1.000000 0.000000 0.000000
vn 1.000000 0.000000 0.000000
vn 1.000000 0.000000 0.000000
vn 1.000000 0.000000 0.000000
vn 1.000000 0.000000 0.000000
vn 1.000000 0.000000 0.000000
vn 1.000000 0.000000 0.000000
vn 1.000000 0.000000 0.000000
vn 1.000000 0.000000 0.000000
vn 1.000000 0.000000 0.000000
vn 1.000000 0.000000 0.000000
vn 1.000000 0.000000 0.000000
vn 1.000000 0.000000 0.000000
vn 1.000000 0.000000 0.000000
vn 1.000000 0.000000 0.000000
vn 1.000000 0.000000 0.000000
vn 1.000000 0.000000 0.000000
vn 1.000000 0.000000 0.000000
vn 1.000000 0.000000 0.000000
vn 1.000000 0.000000 0.000000
vn 1.000000 0.000000 0.000000
vn 1.000000 0.000000 0.000000
vn 1.000000 0.000000 0.000000
vn 1.000000 0.000000 0.000000
vn 1.000000 0.000000 0.000000
vn 1.000000 0.000000 0.000000
vn 1.000000 0.000000 0.000000
vn 1.000000 0.000000 0.000000
vn 1.000000 0.000000 0.000000
vn 1.000000 0.000000 0.000000
vn 1.000000 0.000000 0.000000
vn 1.000000 0.000000 0.000000
vn 1.000000 0.000000 0.000000
vn 1.000000 0.000000 0.000000
vn 1.000000 0.000000 0.000000
vn 1.000000 0.000000 0.000000
vn 1.000000 0.000000 0.000000
vn -1.000000 -0.000000 -0.000000
vn -1.000000 -0.000000 -0.000000
vn -1.000000 -0.000000 -0.000000
vn -1.000000 -0.000000 -0.000000
vn -1.000000 -0.000000 -0.000000
vn -1.000000 -0.000000 -0.000000
vn -1.000000 -0.000000 -0.000000
vn -1.000000 -0.000000 -0.000000
vn -1.000000 -0.000000 -0.000000
vn -1.000000 -0.000000 -0.000000
vn -1.000000 -0.000000 -0.000000
vn -1.000000 -0.000000 -0.000000
vn -1.000000 -0.000000 -0.000000
vn -1.000000 -0.000000 -0.000000
vn -1.000000 -0.000000 -0.000000
vn -1.000000 -0.000000 -0.000000
vn -1.000000 -0.000000 -0.000000
vn -1.000000 -0.000000 -0.000000
vn -1.000000 -0.000000 -0.000000
vn -1.000000 -0.000000 -0.000000
vn -1.000000 -0.000000 -0.000000
vn -1.000000 -0.000000 -0.000000
vn -1.000000 -0.000000 -0.000000
vn -1.000000 -0.000000 -0.000000
vn -1.000000 -0.000000 -0.000000
vn -1.000000 -0.000000 -0.000000
vn -1.000000 -0.000000 -0.000000
vn -1.000000 -0.000000 -0.000000
vn -1.000000 -0.000000 -0.000000
vn -1.000000 -0.000000 -0.000000
vn -1.000000 -0.000000 -0.000000
vn -1.000000 -0.000000 -0.000000
vn -1.000000 -0.000000 -0.000000
vn -1.000000 -0.000000 -0.000000
vn -1.000000 -0.000000 -0.000000
vn -1.000000 -0.000000 -0.000000
vn -1.000000 -0.000000 -0.000000
vn -1.000000 -0.000000 -0.000000
vn -1.000000 -0.000000 -0.000000
vn -1.000000 -0.000000 -0.000000
vn -1.000000 -0.000000 -0.000000
vn -1.000000 -0.000000 -0.000000
vt 0.001 0.001
vt 0.005585 0.425270
vt 0.994415 0.425270
vt 0.000000 0.500000
vt 1.000000 0.500000
vt 0.005585 0.574730
vt 0.994415 0.574730
vt 0.022214 0.647791
vt 0.977786 0.647791
vt 0.049516 0.717550
vt 0.950484 0.717550
vt 0.086881 0.782450
vt 0.913119 0.782450
vt 0.133474 0.841040
vt 0.866526 0.841040
vt 0.188255 0.892012
vt 0.811745 0.892012
vt 0.250000 0.934227
vt 0.750000 0.934227
vt 0.317329 0.966742
vt 0.682671 0.966742
vt 0.388740 0.988831
vt 0.611260 0.988831
vt 0.462635 1.000000
vt 0.537365 1.000000
vt 0.977786 0.352209
vt 0.022214 0.352209
vt 0.950484 0.282450
vt 0.049516 0.282450
vt 0.913119 0.217550
vt 0.086881 0.217550
vt 0.866526 0.158960
vt 0.133474 0.158960
vt 0.811745 0.107988
vt 0.188255 0.107988
vt 0.750000 0.065773
vt 0.250000 0.065773
vt 0.682671 0.033258
vt 0.317329 0.033258
vt 0.611260 0.011169
vt 0.388740 0.011169
vt 0.537365 0.000000
vt 0.462635 0.000000
f 2/1/1 84/1/2 1/1/3
f 1/1/3 84/1/2 43/1/4
f 1/1/3 43/1/4 42/1/5
f 42/1/5 43/1/4 44/1/6
f 42/1/5 44/1/6 41/1/7
f 41/1/7 44/1/6 45/1/8
f 41/1/7 45/1/8 40/1/9
f 40/1/9 45/1/8 46/1/10
f 40/1/9 46/1/10 39/1/11
f 39/1/11 46/1/10 47/1/12
f 39/1/11 47/1/12 38/1/13
f 38/1/13 47/1/12 48/1/14
f 38/1/13 48/1/14 37/1/15
f 37/1/15 48/1/14 49/1/16
f 37/1/15 49/1/16 36/1/17
f 36/1/17 49/1/16 50/1/18
f 36/1/17 50/1/18 35/1/19
f 35/1/19 50/1/18 51/1/20
f 35/1/19 51/1/20 34/1/21
f 34/1/21 51/1/20 52/1/22
f 34/1/21 52/1/22 33/1/23
f 33/1/23 52/1/22 53/1/24
f 33/1/23 53/1/24 32/1/25
f 32/1/25 53/1/24 54/1/26
f 32/1/25 54/1/26 31/1/27
f 31/1/27 54/1/26 55/1/28
f 31/1/27 55/1/28 30/1/29
f 30/1/29 55/1/28 56/1/30
f 30/1/29 56/1/30 29/1/31
f 29/1/31 56/1/30 57/1/32
f 29/1/31 57/1/32 28/1/33
f 28/1/33 57/1/32 58/1/34
f 28/1/33 58/1/34 27/1/35
f 27/1/35 58/1/34 59/1/36
f 27/1/35 59/1/36 26/1/37
f 26/1/37 59/1/36 60/1/38
f 26/1/37 60/1/38 25/1/39
f 25/1/39 60/1/38 61/1/40
f 25/1/39 61/1/40 24/1/41
f 24/1/41 61/1/40 62/1/42
f 24/1/41 62/1/42 23/1/43
f 23/1/43 62/1/42 63/1/44
f 23/1/43 63/1/44 22/1/45
f 22/1/45 63/1/44 64/1/46
f 22/1/45 64/1/46 21/1/47
f 21/1/47 64/1/46 65/1/48
f 21/1/47 65/1/48 20/1/49
f 20/1/49 65/1/48 66/1/50
f 20/1/49 66/1/50 19/1/51
f 19/1/51 66/1/50 67/1/52
f 19/1/51 67/1/52 18/1/53
f 18/1/53 67/1/52 68/1/54
f 18/1/53 68/1/54 17/1/55
f 17/1/55 68/1/54 69/1/56
f 17/1/55 69/1/56 16/1/57
f 16/1/57 69/1/56 70/1/58
f 16/1/57 70/1/58 15/1/59
f 15/1/59 70/1/58 71/1/60
f 15/1/59 71/1/60 14/1/61
f 14/1/61 71/1/60 72/1/62
f 14/1/61 72/1/62 13/1/63
f 13/1/63 72/1/62 73/1/64
f 13/1/63 73/1/64 12/1/65
f 12/1/65 73/1/64 74/1/66
f 12/1/65 74/1/66 11/1/67
f 11/1/67 74/1/66 75/1/68
f 11/1/67 75/1/68 10/1/69
f 10/1/69 75/1/68 76/1/70
f 10/1/69 76/1/70 9/1/71
f 9/1/71 76/1/70 77/1/72
f 9/1/71 77/1/72 8/1/73
f 8/1/73 77/1/72 78/1/74
f 8/1/73 78/1/74 7/1/75
f 7/1/75 78/1/74 79/1/76
f 7/1/75 79/1/76 6/1/77
f 6/1/77 79/1/76 80/1/78
f 6/1/77 80/1/78 5/1/79
f 5/1/79 80/1/78 81/1/80
f 5/1/79 81/1/80 4/1/81
f 4/1/81 81/1/80 82/1/82
f 4/1/81 82/1/82 3/1/83
f 3/1/83 82/1/82 83/1/84
f 3/1/83 83/1/84 2/1/1
f 2/1/1 83/1/84 84/1/2
f 42/2/85 23/3/86 1/4/87
f 1/4/87 23/3/86 22/5/88
f 1/4/87 22/5/88 2/6/89
f 2/6/89 22/5/88 21/7/90
f 2/6/89 21/7/90 3/8/91
f 3/8/91 21/7/90 20/9/92
f 3/8/91 20/9/92 4/10/93
f 4/10/93 20/9/92 19/11/94
f 4/10/93 19/11/94 5/12/95
f 5/12/95 19/11/94 18/13/96
f 5/12/95 18/13/96 6/14/97
f 6/14/97 18/13/96 17/15/98
f 6/14/97 17/15/98 7/16/99
f 7/16/99 17/15/98 16/17/100
f 7/16/99 16/17/100 8/18/101
f 8/18/101 16/17/100 15/19/102
f 8/18/101 15/19/102 9/20/103
f 9/20/103 15/19/102 14/21/104
f 9/20/103 14/21/104 10/22/105
f 10/22/105 14/21/104 13/23/106
f 10/22/105 13/23/106 11/24/107
f 11/24/107 13/23/106 12/25/108
f 23/3/86 42/2/85 24/26/109
f 24/26/109 42/2/85 41/27/110
f 24/26/109 41/27/110 25/28/111
f 25/28/111 41/27/110 40/29/112
f 25/28/111 40/29/112 26/30/113
f 26/30/113 40/29/112 39/31/114
f 26/30/113 39/31/114 27/32/115
f 27/32/115 39/31/114 38/33/116
f 27/32/115 38/33/116 28/34/117
f 28/34/117 38/33/116 37/35/118
f 28/34/117 37/35/118 29/36/119
f 29/36/119 37/35/118 36/37/120
f 29/36/119 36/37/120 30/38/121
f 30/38/121 36/37/120 35/39/122
f 30/38/121 35/39/122 31/40/123
f 31/40/123 35/39/122 34/41/124
f 31/40/123 34/41/124 32/42/125
f 32/42/125 34/41/124 33/43/126
f 84/1/127 65/1/128 43/1/129
f 43/1/129 65/1/128 64/1/130
f 43/1/129 64/1/130 44/1/131
f 44/1/131 64/1/130 63/1/132
f 44/1/131 63/1/132 45/1/133
f 45/1/133 63/1/132 62/1/134
f 45/1/133 62/1/134 46/1/135
f 46/1/135 62/1/134 61/1/136
f 46/1/135 61/1/136 47/1/137
f 47/1/137 61/1/136 60/1/138
f 47/1/137 60/1/138 48/1/139
f 48/1/139 60/1/138 59/1/140
f 48/1/139 59/1/140 49/1/141
f 49/1/141 59/1/140 58/1/142
f 49/1/141 58/1/142 50/1/143
f 50/1/143 58/1/142 57/1/144
f 50/1/143 57/1/144 51/1/145
f 51/1/145 57/1/144 56/1/146
f 51/1/145 56/1/146 52/1/147
f 52/1/147 56/1/146 55/1/148
f 52/1/147 55/1/148 53/1/149
f 53/1/149 55/1/148 54/1/150
f 65/1/128 84/1/127 66/1/151
f 66/1/151 84/1/127 83/1/152
f 66/1/151 83/1/152 67/1/153
f 67/1/153 83/1/152 82/1/154
f 67/1/153 82/1/154 68/1/155
f 68/1/155 82/1/154 81/1/156
f 68/1/155 81/1/156 69/1/157
f 69/1/157 81/1/156 80/1/158
f 69/1/157 80/1/158 70/1/159
f 70/1/159 80/1/158 79/1/160
f 70/1/159 79/1/160 71/1/161
f 71/1/161 79/1/160 78/1/162
f 71/1/161 78/1/162 72/1/163
f 72/1/163 78/1/162 77/1/164
f 72/1/163 77/1/164 73/1/165
f 73/1/165 77/1/164 76/1/166
f 73/1/165 76/1/166 74/1/167
f 74/1/167 76/1/166 75/1/168
